<svg width="115" height="135" viewBox="0 0 115 135" fill="none" xmlns="http://www.w3.org/2000/svg">
<path d="M36 75.125H62.5M36 81.125H62.5M42.375 87.1804H55.6875M74.8125 36.9304C75.4528 42.0249 74.3521 48.0705 73 51.125M73 51.125C69.5 57.625 64.9821 62.0944 62 65.625M73 51.125C78.5 46.625 82 50.625 81.5 53.125M31 33.625C35.7173 23.5962 40.1379 20.71 51 20.125M38.6487 68.0553V62.4303C31.4996 57.6653 23.5 48.6782 23.5 38.8054C23.5 21.8365 39.7677 9.88123 55.7444 13.7206C62.7691 15.4347 68.9235 20.5767 72.125 27.6728M65.375 41.1178C70.785 34.8624 81.3446 32.9982 89.875 34.9303C92.4313 46.1116 88 55.625 82.3125 61.4928C76.625 67.3605 68.6676 69.0135 59.4375 68.3053C57.125 60.8053 59.965 47.3731 65.375 41.1178Z" stroke="white" stroke-width="5" stroke-linecap="round" stroke-linejoin="round"/>
<path d="M5.25781 119.156H5.76172C7.23828 119.156 8.21875 118.984 8.70312 118.641C9.1875 118.297 9.42969 117.688 9.42969 116.812C9.42969 115.867 9.16797 115.203 8.64453 114.82C8.12891 114.43 7.16797 114.234 5.76172 114.234H5.25781V119.156ZM5.08203 121.324V129H2.46875V111.844H6.35938C7.5 111.844 8.38281 111.918 9.00781 112.066C9.64062 112.215 10.1797 112.461 10.625 112.805C11.1562 113.219 11.5664 113.754 11.8555 114.41C12.1445 115.066 12.2891 115.785 12.2891 116.566C12.2891 117.941 11.957 119.02 11.293 119.801C10.6289 120.574 9.64844 121.039 8.35156 121.195L14.2578 129H11.1055L5.39844 121.324H5.08203ZM25.4258 120.211H32.2227C32.2227 120.328 32.2266 120.492 32.2344 120.703C32.2578 121.258 32.2695 121.633 32.2695 121.828C32.2695 124.242 31.5781 126.117 30.1953 127.453C28.8125 128.789 26.8633 129.457 24.3477 129.457C22.9414 129.457 21.6875 129.25 20.5859 128.836C19.4844 128.422 18.5195 127.797 17.6914 126.961C16.8789 126.133 16.2539 125.16 15.8164 124.043C15.3867 122.926 15.1719 121.73 15.1719 120.457C15.1719 119.16 15.3906 117.965 15.8281 116.871C16.2734 115.777 16.9297 114.812 17.7969 113.977C18.6328 113.156 19.6133 112.531 20.7383 112.102C21.8633 111.672 23.0664 111.457 24.3477 111.457C25.6992 111.457 26.9062 111.703 27.9688 112.195C29.0391 112.688 29.9922 113.441 30.8281 114.457L28.7891 115.992C28.2109 115.32 27.5586 114.82 26.832 114.492C26.1055 114.164 25.293 114 24.3945 114C22.5352 114 21.0156 114.598 19.8359 115.793C18.6641 116.98 18.0781 118.527 18.0781 120.434C18.0781 122.371 18.6641 123.945 19.8359 125.156C21.0156 126.359 22.543 126.961 24.418 126.961C26.0117 126.961 27.2656 126.59 28.1797 125.848C29.0938 125.105 29.5508 124.094 29.5508 122.812V122.566H25.4258V120.211ZM37.9414 119.086H39.0078C40.3359 119.086 41.2734 118.906 41.8203 118.547C42.375 118.18 42.6523 117.566 42.6523 116.707C42.6523 115.77 42.3984 115.113 41.8906 114.738C41.3828 114.355 40.4219 114.164 39.0078 114.164H37.9414V119.086ZM37.9414 126.668H38.9023C39.8789 126.668 40.6094 126.629 41.0938 126.551C41.5781 126.473 41.9609 126.336 42.2422 126.141C42.5859 125.914 42.8516 125.609 43.0391 125.227C43.2266 124.844 43.3203 124.422 43.3203 123.961C43.3203 123.414 43.207 122.938 42.9805 122.531C42.7539 122.125 42.4297 121.809 42.0078 121.582C41.7422 121.449 41.4375 121.352 41.0938 121.289C40.7578 121.227 40.3086 121.195 39.7461 121.195H38.9023H37.9414V126.668ZM35.2109 129V111.844H39.5352C40.7695 111.844 41.6797 111.91 42.2656 112.043C42.8594 112.176 43.3633 112.395 43.7773 112.699C44.3086 113.09 44.7188 113.602 45.0078 114.234C45.3047 114.867 45.4531 115.566 45.4531 116.332C45.4531 117.246 45.2422 118.012 44.8203 118.629C44.3984 119.238 43.7852 119.664 42.9805 119.906C43.9805 120.062 44.7656 120.52 45.3359 121.277C45.9141 122.027 46.2031 122.977 46.2031 124.125C46.2031 124.82 46.082 125.48 45.8398 126.105C45.5977 126.73 45.2539 127.262 44.8086 127.699C44.3398 128.176 43.7578 128.512 43.0625 128.707C42.3672 128.902 41.1992 129 39.5586 129H35.2109ZM46.5781 111.844H49.332L52.5781 120.504C52.7891 121.074 52.9648 121.574 53.1055 122.004C53.2539 122.434 53.3828 122.836 53.4922 123.211C53.7656 122.305 54.0508 121.418 54.3477 120.551C54.3867 120.441 54.4141 120.367 54.4297 120.328L57.875 111.164L61.5078 120.504C61.6797 120.957 61.8398 121.41 61.9883 121.863C62.1445 122.316 62.2891 122.773 62.4219 123.234C62.5 122.883 62.6055 122.496 62.7383 122.074C62.8711 121.652 63.043 121.152 63.2539 120.574L66.4766 111.844H69.2539L62.6094 129.668L58.6953 119.883C58.5234 119.445 58.3672 119.027 58.2266 118.629C58.0859 118.223 57.9609 117.84 57.8516 117.48C57.7188 117.941 57.5859 118.375 57.4531 118.781C57.3203 119.18 57.1836 119.562 57.043 119.93L53.1992 129.668L46.5781 111.844ZM69.5117 122.309H75.7812V124.652H69.5117V122.309ZM80.2812 124.898C80.6797 125.633 81.1914 126.195 81.8164 126.586C82.4414 126.977 83.1367 127.172 83.9023 127.172C85.0352 127.172 85.9531 126.812 86.6562 126.094C87.3594 125.367 87.7109 124.414 87.7109 123.234C87.7109 122.102 87.3398 121.18 86.5977 120.469C85.8633 119.758 84.8984 119.402 83.7031 119.402C82.9844 119.402 82.3164 119.527 81.6992 119.777C81.0898 120.02 80.5508 120.383 80.082 120.867L79.3906 120.715L81.5234 112.008H89.6328V114.27H83.1992L82.1914 118.055C82.6602 117.859 83.1133 117.715 83.5508 117.621C83.9883 117.527 84.4258 117.48 84.8633 117.48C86.4961 117.48 87.8242 118.004 88.8477 119.051C89.8711 120.098 90.3828 121.461 90.3828 123.141C90.3828 125.062 89.7852 126.598 88.5898 127.746C87.3945 128.887 85.793 129.457 83.7852 129.457C82.5977 129.457 81.5664 129.254 80.6914 128.848C79.8164 128.434 79.0625 127.797 78.4297 126.938L80.2812 124.898ZM94.1094 127.699C94.1094 127.27 94.2578 126.902 94.5547 126.598C94.8516 126.293 95.2148 126.141 95.6445 126.141C96.0742 126.141 96.4375 126.293 96.7344 126.598C97.0312 126.902 97.1797 127.27 97.1797 127.699C97.1797 128.121 97.0312 128.48 96.7344 128.777C96.4375 129.066 96.0742 129.211 95.6445 129.211C95.2148 129.211 94.8516 129.066 94.5547 128.777C94.2578 128.48 94.1094 128.121 94.1094 127.699ZM112.684 120.738C112.684 123.465 112.133 125.602 111.031 127.148C109.938 128.688 108.43 129.457 106.508 129.457C104.562 129.457 103.047 128.68 101.961 127.125C100.883 125.562 100.344 123.371 100.344 120.551C100.344 117.754 100.891 115.574 101.984 114.012C103.078 112.449 104.598 111.668 106.543 111.668C108.512 111.668 110.027 112.453 111.09 114.023C112.152 115.586 112.684 117.824 112.684 120.738ZM106.461 127.055C107.602 127.055 108.457 126.512 109.027 125.426C109.605 124.332 109.895 122.699 109.895 120.527C109.895 118.418 109.609 116.812 109.039 115.711C108.477 114.602 107.652 114.047 106.566 114.047C105.434 114.047 104.578 114.598 104 115.699C103.422 116.801 103.133 118.426 103.133 120.574C103.133 122.66 103.418 124.262 103.988 125.379C104.566 126.496 105.391 127.055 106.461 127.055Z" fill="white"/>
</svg>
